<svg xmlns="http://www.w3.org/2000/svg" xmlns:xlink="http://www.w3.org/1999/xlink" width="48" height="48" viewBox="0 0 48 48"><defs><clipPath id="a"><rect width="48" height="48" transform="translate(140.642 88.244)" fill="tomato"/></clipPath></defs><g transform="translate(-140.642 -88.244)" clip-path="url(#a)"><path d="M54.331,29.946h-.415a6.255,6.255,0,0,1-5.747-4.009c-.017-.041-.034-.078-.051-.119a6.3,6.3,0,0,1,1.219-6.94l.29-.29a2.438,2.438,0,0,0-3.448-3.448l-.29.29a6.3,6.3,0,0,1-6.94,1.219L38.83,16.6a6.267,6.267,0,0,1-4.006-5.757v-.2A2.489,2.489,0,0,0,32.385,8a2.436,2.436,0,0,0-2.438,2.438v.088a6.6,6.6,0,0,1-4.08,6.1l-.015.007a6.61,6.61,0,0,1-7.2-1.434l-.061-.061a2.438,2.438,0,0,0-3.448,3.448l.088.088a6.558,6.558,0,0,1,1.422,7.142l-.066.156a6.432,6.432,0,0,1-5.94,3.97h0A2.489,2.489,0,0,0,8,32.385a2.436,2.436,0,0,0,2.438,2.438H10.6a6.488,6.488,0,0,1,6,4.009l.051.119a6.558,6.558,0,0,1-1.422,7.142l-.088.088A2.438,2.438,0,1,0,18.59,49.63l.088-.088A6.557,6.557,0,0,1,25.82,48.12l.349.146a6.11,6.11,0,0,1,3.777,5.65v.207a2.49,2.49,0,0,0,2.438,2.646,2.438,2.438,0,0,0,2.438-2.438v-.415a6.114,6.114,0,0,1,3.78-5.652l.614-.254a6.117,6.117,0,0,1,6.672,1.329l.29.29a2.438,2.438,0,1,0,3.448-3.448l-.29-.29a6.3,6.3,0,0,1-1.219-6.94c.017-.041.034-.078.051-.119a6.271,6.271,0,0,1,5.76-4.009h.2a2.49,2.49,0,0,0,2.646-2.438A2.436,2.436,0,0,0,54.331,29.946Zm-31.7,4.877a2.438,2.438,0,1,1,2.438-2.438A2.438,2.438,0,0,1,22.631,34.823Zm12.192,8.535a2.438,2.438,0,1,1,2.438-2.438A2.438,2.438,0,0,1,34.823,43.358Zm2.438-10.973a4.877,4.877,0,1,1,4.877-4.877A4.879,4.879,0,0,1,37.262,32.385Z" transform="translate(132.106 80.01)" fill="tomato"/></g></svg>